# xmcd
#
# Track frame offsets: 
#        150
#        24962
#        43337
#        66832
#        80829
#        99527
#        121925
#        147610
#        169097
#        182662
#        216075
#        233842
#        250309
#        266520
#        282897
#        297210
#        311265
#
# Disc length: 4455 seconds
#
# Revision: 0
# Processed by: cddbd v1.5.2PL0 Copyright (c) Steve Scherf et al.
# Submitted via: ExactAudioCopy v0.99pb1
#
DISCID=fb116511
DTITLE=Vladimir Misik - Vladimir Misik ETC...4
DYEAR=2001
DGENRE=Blues
TTITLE0=Nezapomen
TTITLE1=(Mozna)
TTITLE2=Navstevni den
TTITLE3=Pes Franta a Kant
TTITLE4=Pochod adolescentu
TTITLE5=Kdyz se zeseri
TTITLE6=Doteky
TTITLE7=Nocni mura
TTITLE8=Bazarem promen
TTITLE9=Biograf
TTITLE10=Proc ta ruze uvada
TTITLE11=Jednohubky
TTITLE12=Kde je muj stul
TTITLE13=Strihali dohola maleho chlapecka
TTITLE14=Lady Vamp
TTITLE15=Ja mam schuzku o pul pate
TTITLE16=Syn Daidaluv
EXTD=
EXTT0=
EXTT1=
EXTT2=
EXTT3=
EXTT4=
EXTT5=
EXTT6=
EXTT7=
EXTT8=
EXTT9=
EXTT10=
EXTT11=
EXTT12=
EXTT13=
EXTT14=
EXTT15=
EXTT16=
PLAYORDER=
